<?xml version="1.0" standalone="no"?>
<!DOCTYPE svg PUBLIC "-//W3C//DTD SVG 20010904//EN"
 "http://www.w3.org/TR/2001/REC-SVG-20010904/DTD/svg10.dtd">
<svg version="1.0" xmlns="http://www.w3.org/2000/svg"
 width="64.000000pt" height="64.000000pt" viewBox="0 0 64.000000 64.000000"
 preserveAspectRatio="xMidYMid meet">

<g transform="translate(0.000000,64.000000) scale(0.100000,-0.100000)"
fill="#000000" stroke="none">
<path d="M170 415 l-155 -155 113 -112 112 -113 155 155 c141 141 155 158 155
190 0 30 5 38 40 58 67 38 44 67 -25 32 -21 -11 -49 -20 -61 -20 -12 0 -27 -7
-34 -15 -28 -34 -87 6 -64 43 8 11 22 16 45 15 19 -2 49 0 67 3 29 4 32 8 32
39 l0 35 -113 0 -112 0 -155 -155z m140 -28 c0 -7 -31 -43 -68 -80 -53 -53
-70 -65 -80 -55 -10 10 2 27 55 80 65 66 93 82 93 55z m20 -120 c0 -7 -19 -32
-43 -55 -34 -33 -46 -39 -55 -30 -9 9 -3 21 30 55 42 43 68 54 68 30z"/>
</g>
</svg>
